# xmcd CD database file
#
# Track frame offsets:
#	187
#	15550
#	32872
#	50965
#	66785
#	80540
#	95385
#	109972
#	124017
#	136107
#	150190
#
# Disc length: 2186 seconds
#
# Revision: 4
# Processed by: cddbd v1.4PL0 Copyright (c) Steve Scherf et al.
# Submitted via: CDex 1.50
#
DISCID=8908880b
DTITLE=David Ball - David Ball
DYEAR=1994
DGENRE=Country
TTITLE0=Gift Of Love
TTITLE1=If She Were Mine
TTITLE2=Message In A Bottle
TTITLE3=All Over Me
TTITLE4=Listen To My Heart 
TTITLE5=No More Tears
TTITLE6=Texas Echo
TTITLE7=Waiting For Somebody New
TTITLE8=We're Steppin' Out Tonight
TTITLE9=I Was Born With A Broken Heart
TTITLE10=Smokin' Cigarettes And Drinkin' Coffee Blues
EXTD=YEAR: 1994
EXTT0=
EXTT1=
EXTT2=
EXTT3=
EXTT4=
EXTT5=
EXTT6=
EXTT7=
EXTT8=
EXTT9=
EXTT10=
PLAYORDER=
